<svg id="Layer_1" data-name="Layer 1" xmlns="http://www.w3.org/2000/svg" viewBox="0 0 628.96 183"><defs><style>.cls-1{fill:#f29208;}.cls-2{fill:#933303;}.cls-3{opacity:0.15;}</style></defs><title>logo</title><path d="M222.61,52a.74.74,0,0,1,.84.84V62a.74.74,0,0,1-.84.84H210.47v43.84a.74.74,0,0,1-.84.84H200.4a.74.74,0,0,1-.84-.84V62.88h-8.33a.74.74,0,0,1-.84-.84V52.81a.74.74,0,0,1,.84-.84h8.33V36.09a19.25,19.25,0,0,1,2.32-9.49,15.23,15.23,0,0,1,6.52-6.26,14.61,14.61,0,0,1,8.46-1.48,18.25,18.25,0,0,1,8.52,3.23.73.73,0,0,1,.19,1.23l-5.49,7.36a.76.76,0,0,1-1.16.19q-3.16-2-5.62-.77-2.84,1.42-2.84,6V52Z"/><path d="M236.52,54.23a23.31,23.31,0,0,1,16.33-3.29.75.75,0,0,1,.71,1l-1.87,9a.76.76,0,0,1-1,.65,11.49,11.49,0,0,0-1.74-.13,12,12,0,0,0-8.33,3.23,12.22,12.22,0,0,0-4.13,7.88v35a.74.74,0,0,1-.84.84h-9.36a.74.74,0,0,1-.84-.84V51a.74.74,0,0,1,.84-.84h9.36a.74.74,0,0,1,.84.84Z"/><path d="M277.81,50.42a26.53,26.53,0,0,1,19.69,8.52,27.76,27.76,0,0,1,8.13,20v3.68a.75.75,0,0,1-.77.84l-42.61,3.68a18,18,0,0,0,16.33,10.33,18.06,18.06,0,0,0,8.71-2.19,17.71,17.71,0,0,0,6.58-6.13.79.79,0,0,1,1.16-.32L303,93.48a.73.73,0,0,1,.32,1.16,29.2,29.2,0,0,1-24.73,13.75,29.1,29.1,0,0,1-29-29,28.42,28.42,0,0,1,8.2-20.66A26.7,26.7,0,0,1,277.81,50.42Zm16.33,23a15.4,15.4,0,0,0-5.87-8.84,17.2,17.2,0,0,0-10.65-3.36,16.18,16.18,0,0,0-11.23,4.26,17.38,17.38,0,0,0-5.68,10.85Z"/><path d="M335.68,50.42a26.53,26.53,0,0,1,19.69,8.52,27.76,27.76,0,0,1,8.13,20v3.68a.75.75,0,0,1-.77.84l-42.61,3.68a18,18,0,0,0,16.33,10.33,18.06,18.06,0,0,0,8.71-2.19,17.71,17.71,0,0,0,6.58-6.13.79.79,0,0,1,1.16-.32l7.94,4.65a.73.73,0,0,1,.32,1.16,29.2,29.2,0,0,1-24.73,13.75,29.1,29.1,0,0,1-29-29,28.42,28.42,0,0,1,8.2-20.66A26.7,26.7,0,0,1,335.68,50.42Zm16.33,23a15.4,15.4,0,0,0-5.87-8.84,17.2,17.2,0,0,0-10.65-3.36,16.18,16.18,0,0,0-11.23,4.26,17.38,17.38,0,0,0-5.68,10.85Z"/><path d="M402.76,90.9v1.81l-.07.13v.39l-.13,1-.13,1a15.2,15.2,0,0,1-2.91,6.46,14.63,14.63,0,0,1-5.16,4.26,23.64,23.64,0,0,1-5.42,1.94,32.42,32.42,0,0,1-4.91.58h-1.29l-.9-.06h-1l-1.16-.13a33.4,33.4,0,0,1-4.13-.84,24.51,24.51,0,0,1-6.13-2.52,25.39,25.39,0,0,1-2.78-1.81,12.62,12.62,0,0,1-1.61-1.36.74.74,0,0,1,0-1.23l6.71-6.39a.82.82,0,0,1,1.1-.06q.52.45,1,.77l1,.65A15.62,15.62,0,0,0,378.48,97l.58.19.58.13.32.06.32.06a3.82,3.82,0,0,0,.58.06l.26.06h.26a5.11,5.11,0,0,0,.84.06l.9.06.58-.06a22.09,22.09,0,0,0,3-.26,12.54,12.54,0,0,0,2.65-.9A5,5,0,0,0,392,93l.06-.26.06-.19v-.52l.06-.58v-.26l-.06-.32a.28.28,0,0,0,0-.26l-.06-.32a4.69,4.69,0,0,0-1-2.13q-1.68-2-6.52-4.26l-2.39-1.1L381,82.31l-.26-.13-.19-.06v-.06l-.58-.19a52.61,52.61,0,0,1-5-2.58,22.25,22.25,0,0,1-5.17-4.07,5.68,5.68,0,0,1-.58-.71l-.52-.77a9.86,9.86,0,0,1-1-1.61l-.45-.9q-.19-.52-.32-.9l-.26-1-.13-.52-.06-.52q-.13-.58-.19-1.1v-.58l-.06-.32v-.58l.06-.84a12.82,12.82,0,0,1,.13-1.68,10.49,10.49,0,0,1,.39-1.68,13,13,0,0,1,3.49-6.07A14.21,14.21,0,0,1,375.58,52a23.93,23.93,0,0,1,5.1-1.23q1.74-.13,2.32-.13l1.1-.06,1.1.06a25.75,25.75,0,0,1,4.07.52,26.26,26.26,0,0,1,6.33,2.39,14.76,14.76,0,0,1,2.13,1.29,14.53,14.53,0,0,1,1.55,1.1l.65.65a.73.73,0,0,1,.06,1.23L394,63.53a.74.74,0,0,1-1.1.06l-1-.71q-.65-.39-1-.65a17,17,0,0,0-3.75-1.36,14.89,14.89,0,0,0-2.45-.26l-.71-.06-.71.06h-.84l-.32.06h-.26a14,14,0,0,0-2.65.65,6.15,6.15,0,0,0-1.74,1.16,3.51,3.51,0,0,0-.9,1.68l-.06.26-.06.32-.07.32v1l.07.58v.06h.06v.13l.06.26.06.19.13.19.26.45.19.26.19.26a12,12,0,0,0,2.65,2,41.73,41.73,0,0,0,4.07,1.94l.52.26.78.32,1.16.58,2.26,1a36.62,36.62,0,0,1,5.1,2.71,20.46,20.46,0,0,1,5.1,4.26,14.6,14.6,0,0,1,3.36,6.71l.13.9a4.49,4.49,0,0,1,.13.9Z"/><path d="M425.24,97.16q2.07,1,4.84-.71a.74.74,0,0,1,1.1.26l5.49,7.36q.58.71-.19,1.16a16.67,16.67,0,0,1-9.62,3.16,14.4,14.4,0,0,1-6.52-1.55,14.21,14.21,0,0,1-6.2-5.94,18.48,18.48,0,0,1-2.2-9V61.07H403.1a.74.74,0,0,1-.84-.84V51.07a.74.74,0,0,1,.84-.84h8.84L411.88,38a.74.74,0,0,1,.84-.84H422a.74.74,0,0,1,.84.84v12.2h8.84a.74.74,0,0,1,.84.84v9.17a.74.74,0,0,1-.84.84h-8.84V91.87Q422.79,95.94,425.24,97.16Z"/><path d="M479.46,50.55a.83.83,0,0,1,.77-.52h10.14a.81.81,0,0,1,.71.39.71.71,0,0,1,.06.77L459.06,131a.75.75,0,0,1-.78.52H448.15a.67.67,0,0,1-.65-.39.81.81,0,0,1-.13-.77l9.81-24.4L434.53,51.2a.71.71,0,0,1,.07-.77.81.81,0,0,1,.71-.39h10.14a.75.75,0,0,1,.77.52l16.91,40.74Z"/><path d="M494.9,108.4a.74.74,0,0,1-.84-.84v-91a.74.74,0,0,1,.84-.84h9.43a.74.74,0,0,1,.84.84v91a.74.74,0,0,1-.84.84Z"/><path d="M538,50.42a26.53,26.53,0,0,1,19.69,8.52,27.76,27.76,0,0,1,8.13,20v3.68a.75.75,0,0,1-.77.84l-42.61,3.68a18,18,0,0,0,16.33,10.33,18.06,18.06,0,0,0,8.71-2.19,17.71,17.71,0,0,0,6.58-6.13.79.79,0,0,1,1.16-.32l7.94,4.65a.73.73,0,0,1,.32,1.16,29.2,29.2,0,0,1-24.73,13.75,29.1,29.1,0,0,1-29-29A28.42,28.42,0,0,1,518,58.75,26.7,26.7,0,0,1,538,50.42Zm16.33,23a15.4,15.4,0,0,0-5.87-8.84,17.2,17.2,0,0,0-10.65-3.36,16.18,16.18,0,0,0-11.23,4.26,17.38,17.38,0,0,0-5.68,10.85Z"/><polygon class="cls-1" points="157.24 28.61 87.59 28.44 58.83 39.3 132.32 39.48 132.14 118.05 157.66 92.11 157.24 28.61"/><path class="cls-1" d="M103.36,117.88c0-19.62-7.88-33.51-23.39-41.26a60,60,0,0,0-23.88-6V61.24h0a69.18,69.18,0,0,1,28.08,7c13,6.51,28.58,20.42,28.58,49.65Z"/><path class="cls-2" d="M85.21,117.89c0-12-4.73-20.48-14.05-25.25a37.75,37.75,0,0,0-15.08-3.86V79.39h0a46.84,46.84,0,0,1,19,4.72C84,88.56,94.59,98,94.59,117.89Z"/><path class="cls-1" d="M69.29,117.11c0-12.07-11.15-12.42-12.42-12.42h0V96.87h0c7,0,20.24,4.23,20.24,20.24Z"/><g class="cls-3"><rect x="22.96" y="138.25" width="584" height="0.5"/></g><path d="M46.61,155.72,50.25,165H49.3l-1.13-2.89H43.94L42.83,165h-.94l3.73-9.28Zm1.26,5.64-1.79-4.76-1.86,4.76Z"/><path d="M58,159.6a1.32,1.32,0,0,0-.38-.46,1.6,1.6,0,0,0-.55-.27,2.53,2.53,0,0,0-.66-.08,2.69,2.69,0,0,0-.55.06,1.7,1.7,0,0,0-.51.19,1.11,1.11,0,0,0-.38.36,1,1,0,0,0-.14.55.77.77,0,0,0,.14.46,1.21,1.21,0,0,0,.34.32,2.21,2.21,0,0,0,.46.21l.46.14,1.09.25a3.18,3.18,0,0,1,.7.19,2.25,2.25,0,0,1,.61.36,1.74,1.74,0,0,1,.44.55,1.63,1.63,0,0,1,.17.77,1.68,1.68,0,0,1-.25.93,2,2,0,0,1-.63.62,2.69,2.69,0,0,1-.86.34,4.49,4.49,0,0,1-.95.1,3.08,3.08,0,0,1-1.92-.56,2.38,2.38,0,0,1-.84-1.79h.82a1.62,1.62,0,0,0,.6,1.25,2.19,2.19,0,0,0,1.37.42,3.07,3.07,0,0,0,.62-.06,2,2,0,0,0,.59-.22,1.42,1.42,0,0,0,.45-.4,1,1,0,0,0,.18-.59.94.94,0,0,0-.12-.5,1.07,1.07,0,0,0-.33-.34,2.1,2.1,0,0,0-.47-.23L57,162l-1.05-.23a6,6,0,0,1-.74-.24,2.37,2.37,0,0,1-.59-.34,1.41,1.41,0,0,1-.4-.49A1.63,1.63,0,0,1,54,160a1.61,1.61,0,0,1,.23-.87,1.77,1.77,0,0,1,.59-.58,2.76,2.76,0,0,1,.81-.32,3.93,3.93,0,0,1,.89-.1,3.29,3.29,0,0,1,.94.13,2.17,2.17,0,0,1,.77.4,2,2,0,0,1,.53.68,2.42,2.42,0,0,1,.22.95H58.2A1.54,1.54,0,0,0,58,159.6Z"/><path d="M62.85,158.29V159H61.48v4.52a1.48,1.48,0,0,0,.11.63q.11.23.55.25a6.4,6.4,0,0,0,.7,0V165h-.73a1.21,1.21,0,0,1-1.46-1.5V159H59.49v-.69h1.17v-2h.82v2Z"/><path d="M64.2,158.29,66.41,164l2.07-5.72h.82L66.38,166a7.6,7.6,0,0,1-.34.71,1.62,1.62,0,0,1-.34.44,1.14,1.14,0,0,1-.44.23,2.43,2.43,0,0,1-.64.07l-.38,0a.79.79,0,0,1-.24,0v-.69l.28,0,.28,0a1.12,1.12,0,0,0,.45-.08,1,1,0,0,0,.31-.21,1.22,1.22,0,0,0,.22-.33l.2-.43L66,165l-2.68-6.68Z"/><path d="M70.78,155.72V165H70v-9.28Z"/><path d="M72.79,162.78a2.5,2.5,0,0,0,.4.85,2.26,2.26,0,0,0,.69.62,1.92,1.92,0,0,0,1,.25,2,2,0,0,0,1.4-.47,2.46,2.46,0,0,0,.7-1.25h.82a3.27,3.27,0,0,1-1,1.77,2.85,2.85,0,0,1-2,.62,3.12,3.12,0,0,1-1.37-.28,2.52,2.52,0,0,1-.94-.77A3.33,3.33,0,0,1,72,163a5.17,5.17,0,0,1-.17-1.36,4.9,4.9,0,0,1,.17-1.3,3.48,3.48,0,0,1,.54-1.14,2.71,2.71,0,0,1,.94-.81,2.9,2.9,0,0,1,1.37-.31,2.65,2.65,0,0,1,2.31,1.18,3.52,3.52,0,0,1,.51,1.21,5.28,5.28,0,0,1,.13,1.38H72.66A3.61,3.61,0,0,0,72.79,162.78Zm4.06-2.5a2.45,2.45,0,0,0-.42-.76,2.09,2.09,0,0,0-.66-.53,1.9,1.9,0,0,0-.88-.2,1.92,1.92,0,0,0-.9.2,2.1,2.1,0,0,0-.66.53,2.64,2.64,0,0,0-.44.77,3.78,3.78,0,0,0-.21.89H77A2.94,2.94,0,0,0,76.84,160.28Z"/><path d="M82.37,158.29,84.09,164h0l1.64-5.75h.92L88.31,164h0l1.72-5.75h.87L88.77,165h-.9l-1.65-5.64h0L84.56,165h-.9l-2.16-6.71Z"/><path d="M92.38,158.29v1.57h0a2.58,2.58,0,0,1,1-1.26,2.53,2.53,0,0,1,1.57-.4V159a2.48,2.48,0,0,0-1,.15,2.28,2.28,0,0,0-.79.5,2.25,2.25,0,0,0-.51.77,2.57,2.57,0,0,0-.18,1V165h-.82v-6.71Z"/><path d="M95.64,159.33a1.92,1.92,0,0,1,.57-.7,2.4,2.4,0,0,1,.84-.4,4.1,4.1,0,0,1,1.07-.13,4.67,4.67,0,0,1,.88.08,2.13,2.13,0,0,1,.79.32,1.73,1.73,0,0,1,.57.66,2.37,2.37,0,0,1,.22,1.1v3.56a.43.43,0,0,0,.48.49.63.63,0,0,0,.26-.05v.69l-.25,0h-.28a1.23,1.23,0,0,1-.5-.08.67.67,0,0,1-.29-.24.9.9,0,0,1-.14-.37,3.08,3.08,0,0,1,0-.47h0a5.44,5.44,0,0,1-.45.58,2.22,2.22,0,0,1-.51.42,2.33,2.33,0,0,1-.64.26,3.49,3.49,0,0,1-.85.09,3.36,3.36,0,0,1-.88-.11,2,2,0,0,1-.71-.35,1.69,1.69,0,0,1-.48-.61,2,2,0,0,1-.18-.88,1.74,1.74,0,0,1,.31-1.1,2,2,0,0,1,.83-.6,4.73,4.73,0,0,1,1.16-.29l1.31-.16.46-.07a.8.8,0,0,0,.33-.14.62.62,0,0,0,.2-.27,1.14,1.14,0,0,0,.07-.44,1.5,1.5,0,0,0-.14-.68,1.08,1.08,0,0,0-.38-.42,1.51,1.51,0,0,0-.56-.21,3.76,3.76,0,0,0-.68-.06,2.07,2.07,0,0,0-1.27.37,1.45,1.45,0,0,0-.52,1.19h-.82A2.71,2.71,0,0,1,95.64,159.33Zm4.09,2a.47.47,0,0,1-.3.21l-.39.09L98,161.8a5.89,5.89,0,0,0-1,.21,2,2,0,0,0-.75.41,1,1,0,0,0-.29.76,1.19,1.19,0,0,0,.12.55,1.32,1.32,0,0,0,.33.42,1.43,1.43,0,0,0,.48.27,1.76,1.76,0,0,0,.56.09,2.81,2.81,0,0,0,.9-.14,2.2,2.2,0,0,0,.75-.42,2,2,0,0,0,.7-1.55v-1.07Z"/><path d="M102.87,158.29v1.16h0a2,2,0,0,1,.83-1,2.45,2.45,0,0,1,1.31-.37,3.31,3.31,0,0,1,1.18.18,1.87,1.87,0,0,1,.76.51,1.92,1.92,0,0,1,.4.81,4.57,4.57,0,0,1,.12,1.08V165h-.82v-4.19a3.9,3.9,0,0,0-.08-.8,1.71,1.71,0,0,0-.27-.64,1.33,1.33,0,0,0-.53-.43,1.93,1.93,0,0,0-.83-.16,2.09,2.09,0,0,0-.88.18,1.9,1.9,0,0,0-.65.48,2.22,2.22,0,0,0-.42.73,3,3,0,0,0-.16.92V165h-.82v-6.71Z"/><path d="M114.35,165.79a2.62,2.62,0,0,1-.51,1,2.24,2.24,0,0,1-.92.64,3.82,3.82,0,0,1-1.38.22,4.15,4.15,0,0,1-1-.12,2.8,2.8,0,0,1-.87-.36,2.16,2.16,0,0,1-.64-.63,1.88,1.88,0,0,1-.29-.92h.82a1.45,1.45,0,0,0,.25.63,1.5,1.5,0,0,0,.46.41,2,2,0,0,0,.59.23,3.07,3.07,0,0,0,.66.07,2,2,0,0,0,1.65-.65,3,3,0,0,0,.51-1.87v-.91h0a2.39,2.39,0,0,1-.84,1,2.24,2.24,0,0,1-1.29.38,3.24,3.24,0,0,1-1.38-.27,2.56,2.56,0,0,1-.94-.73,3,3,0,0,1-.54-1.1,5.15,5.15,0,0,1-.17-1.35,4.17,4.17,0,0,1,.2-1.31,3.23,3.23,0,0,1,.58-1.08,2.74,2.74,0,0,1,.95-.73,3,3,0,0,1,1.29-.27,2.35,2.35,0,0,1,.71.1,2.25,2.25,0,0,1,.6.29,2.59,2.59,0,0,1,.49.44,2,2,0,0,1,.33.52h0v-1.16h.82v6.16A5.1,5.1,0,0,1,114.35,165.79ZM112.47,164a2.13,2.13,0,0,0,.68-.6,2.63,2.63,0,0,0,.41-.85,3.57,3.57,0,0,0,.14-1,4.27,4.27,0,0,0-.12-1,2.85,2.85,0,0,0-.38-.9,2,2,0,0,0-.67-.65,1.89,1.89,0,0,0-1-.25,2,2,0,0,0-1,.24,2.13,2.13,0,0,0-.69.63,2.62,2.62,0,0,0-.4.89,4.22,4.22,0,0,0-.12,1,3.8,3.8,0,0,0,.13,1,2.55,2.55,0,0,0,.4.85,2.08,2.08,0,0,0,.69.6,2,2,0,0,0,1,.23A1.87,1.87,0,0,0,112.47,164Z"/><path d="M116.69,155.72V165h-.82v-9.28Z"/><path d="M118.69,162.78a2.5,2.5,0,0,0,.4.85,2.26,2.26,0,0,0,.69.62,1.92,1.92,0,0,0,1,.25,2,2,0,0,0,1.4-.47,2.46,2.46,0,0,0,.7-1.25h.82a3.27,3.27,0,0,1-1,1.77,2.85,2.85,0,0,1-2,.62,3.12,3.12,0,0,1-1.37-.28,2.52,2.52,0,0,1-.94-.77,3.33,3.33,0,0,1-.54-1.13,5.17,5.17,0,0,1-.17-1.36,4.9,4.9,0,0,1,.17-1.3,3.48,3.48,0,0,1,.54-1.14,2.71,2.71,0,0,1,.94-.81,2.9,2.9,0,0,1,1.37-.31,2.65,2.65,0,0,1,2.31,1.18,3.52,3.52,0,0,1,.51,1.21,5.28,5.28,0,0,1,.13,1.38h-5.16A3.61,3.61,0,0,0,118.69,162.78Zm4.06-2.5a2.45,2.45,0,0,0-.42-.76,2.09,2.09,0,0,0-.66-.53,1.9,1.9,0,0,0-.88-.2,1.92,1.92,0,0,0-.9.2,2.1,2.1,0,0,0-.66.53,2.64,2.64,0,0,0-.44.77,3.78,3.78,0,0,0-.21.89h4.34A2.94,2.94,0,0,0,122.75,160.28Z"/><path d="M125.45,158.29v1.57h0a2.58,2.58,0,0,1,1-1.26,2.53,2.53,0,0,1,1.57-.4V159a2.48,2.48,0,0,0-1,.15,2.28,2.28,0,0,0-.79.5,2.25,2.25,0,0,0-.51.77,2.57,2.57,0,0,0-.18,1V165h-.82v-6.71Z"/><path d="M132.88,155.72V165h-.82v-9.28Z"/><path d="M135.06,155.72V157h-.82v-1.31Zm0,2.57V165h-.82v-6.71Z"/><path d="M137.24,155.72v3.85h0a1.94,1.94,0,0,1,.37-.64,2.38,2.38,0,0,1,.55-.46,2.45,2.45,0,0,1,.68-.28,3,3,0,0,1,.73-.09,2.92,2.92,0,0,1,1.33.29,2.73,2.73,0,0,1,.94.77,3.29,3.29,0,0,1,.56,1.13,5.17,5.17,0,0,1,0,2.72,3.3,3.3,0,0,1-.56,1.13,2.66,2.66,0,0,1-.94.77,3,3,0,0,1-1.33.28,2.85,2.85,0,0,1-1.46-.38,2.17,2.17,0,0,1-.93-1.08h0V165h-.75v-9.28Zm4.43,4.89a2.85,2.85,0,0,0-.39-.92,2.15,2.15,0,0,0-.68-.66,1.89,1.89,0,0,0-1-.25,2.2,2.2,0,0,0-1.1.25,2.16,2.16,0,0,0-.73.66,2.69,2.69,0,0,0-.4.92,4.37,4.37,0,0,0,0,2.07,2.69,2.69,0,0,0,.4.92,2.16,2.16,0,0,0,.73.66,2.2,2.2,0,0,0,1.1.25,1.89,1.89,0,0,0,1-.25,2.15,2.15,0,0,0,.68-.66,2.85,2.85,0,0,0,.39-.92,4.37,4.37,0,0,0,0-2.07Z"/><path d="M144.44,158.29v1.57h0a2.58,2.58,0,0,1,1-1.26,2.53,2.53,0,0,1,1.57-.4V159a2.48,2.48,0,0,0-1,.15,2.28,2.28,0,0,0-.79.5,2.25,2.25,0,0,0-.51.77,2.57,2.57,0,0,0-.18,1V165h-.82v-6.71Z"/><path d="M147.7,159.33a1.92,1.92,0,0,1,.57-.7,2.4,2.4,0,0,1,.84-.4,4.1,4.1,0,0,1,1.07-.13,4.67,4.67,0,0,1,.88.08,2.13,2.13,0,0,1,.79.32,1.73,1.73,0,0,1,.57.66,2.37,2.37,0,0,1,.22,1.1v3.56a.43.43,0,0,0,.48.49.63.63,0,0,0,.26-.05v.69l-.25,0h-.28a1.23,1.23,0,0,1-.5-.08.67.67,0,0,1-.29-.24.9.9,0,0,1-.14-.37,3.08,3.08,0,0,1,0-.47h0a5.44,5.44,0,0,1-.45.58,2.22,2.22,0,0,1-.51.42,2.33,2.33,0,0,1-.64.26,3.49,3.49,0,0,1-.85.09,3.36,3.36,0,0,1-.88-.11,2,2,0,0,1-.71-.35,1.69,1.69,0,0,1-.48-.61,2,2,0,0,1-.18-.88,1.74,1.74,0,0,1,.31-1.1,2,2,0,0,1,.83-.6,4.73,4.73,0,0,1,1.16-.29l1.31-.16.46-.07a.8.8,0,0,0,.33-.14.62.62,0,0,0,.2-.27,1.14,1.14,0,0,0,.07-.44,1.5,1.5,0,0,0-.14-.68,1.08,1.08,0,0,0-.38-.42,1.51,1.51,0,0,0-.56-.21,3.76,3.76,0,0,0-.68-.06,2.07,2.07,0,0,0-1.27.37,1.45,1.45,0,0,0-.52,1.19h-.82A2.71,2.71,0,0,1,147.7,159.33Zm4.09,2a.47.47,0,0,1-.3.21l-.39.09-1.07.16a5.89,5.89,0,0,0-1,.21,2,2,0,0,0-.75.41,1,1,0,0,0-.29.76,1.19,1.19,0,0,0,.12.55,1.32,1.32,0,0,0,.33.42,1.43,1.43,0,0,0,.48.27,1.76,1.76,0,0,0,.56.09,2.81,2.81,0,0,0,.9-.14,2.2,2.2,0,0,0,.75-.42,2,2,0,0,0,.7-1.55v-1.07Z"/><path d="M154.87,158.29v1.57h0a2.58,2.58,0,0,1,1-1.26,2.53,2.53,0,0,1,1.57-.4V159a2.48,2.48,0,0,0-1,.15,2.28,2.28,0,0,0-.79.5,2.25,2.25,0,0,0-.51.77,2.57,2.57,0,0,0-.18,1V165h-.82v-6.71Z"/><path d="M158.58,158.29l2.21,5.72,2.07-5.72h.82L160.76,166a7.6,7.6,0,0,1-.34.71,1.62,1.62,0,0,1-.34.44,1.14,1.14,0,0,1-.44.23,2.43,2.43,0,0,1-.64.07l-.38,0a.79.79,0,0,1-.24,0v-.69l.28,0,.28,0a1.12,1.12,0,0,0,.45-.08,1,1,0,0,0,.31-.21,1.22,1.22,0,0,0,.22-.33l.2-.43.29-.75-2.68-6.68Z"/><path d="M164.86,165a2.27,2.27,0,0,1-.07.57,2,2,0,0,1-.21.52,1.68,1.68,0,0,1-.36.42,1.29,1.29,0,0,1-.5.26v-.56A.59.59,0,0,0,164,166a1.42,1.42,0,0,0,.19-.32,1.53,1.53,0,0,0,.11-.36,1.29,1.29,0,0,0,0-.33h-.55v-1.38h1.09Z"/><path d="M171,155.72V157h-.82v-1.31Zm0,2.57V165h-.82v-6.71Z"/><path d="M173.16,158.29v1.16h0a2,2,0,0,1,.83-1,2.45,2.45,0,0,1,1.31-.37,3.31,3.31,0,0,1,1.18.18,1.87,1.87,0,0,1,.76.51,1.92,1.92,0,0,1,.4.81,4.57,4.57,0,0,1,.12,1.08V165H177v-4.19a3.9,3.9,0,0,0-.08-.8,1.71,1.71,0,0,0-.27-.64,1.33,1.33,0,0,0-.53-.43,1.93,1.93,0,0,0-.83-.16,2.09,2.09,0,0,0-.88.18,1.9,1.9,0,0,0-.65.48,2.22,2.22,0,0,0-.42.73,3,3,0,0,0-.16.92V165h-.82v-6.71Z"/><path d="M183.34,158.29v1.27h0a2.2,2.2,0,0,1,.93-1.09,2.81,2.81,0,0,1,1.46-.38,2.92,2.92,0,0,1,1.33.29,2.73,2.73,0,0,1,.94.77,3.29,3.29,0,0,1,.56,1.13,5.17,5.17,0,0,1,0,2.72,3.3,3.3,0,0,1-.56,1.13,2.66,2.66,0,0,1-.94.77,3,3,0,0,1-1.33.28,3,3,0,0,1-.73-.09,2.56,2.56,0,0,1-.68-.27,2.24,2.24,0,0,1-.55-.46,1.94,1.94,0,0,1-.37-.64h0v3.74h-.82v-9.18Zm4.49,2.32a2.85,2.85,0,0,0-.39-.92,2.15,2.15,0,0,0-.68-.66,1.89,1.89,0,0,0-1-.25,2.45,2.45,0,0,0-1.13.23,2,2,0,0,0-.73.62,2.46,2.46,0,0,0-.38.91,5.2,5.2,0,0,0-.11,1.09,4.37,4.37,0,0,0,.12,1,2.69,2.69,0,0,0,.4.92,2.16,2.16,0,0,0,.73.66,2.2,2.2,0,0,0,1.1.25,1.89,1.89,0,0,0,1-.25,2.15,2.15,0,0,0,.68-.66,2.85,2.85,0,0,0,.39-.92,4.37,4.37,0,0,0,0-2.07Z"/><path d="M194.5,165v-1.21h0a2.32,2.32,0,0,1-.94,1,2.69,2.69,0,0,1-1.37.36,3,3,0,0,1-1.09-.18,1.8,1.8,0,0,1-.73-.5,2,2,0,0,1-.41-.79,4,4,0,0,1-.13-1.07v-4.35h.82v4.37A2.18,2.18,0,0,0,191,164a2.11,2.11,0,0,0,2.28.24,1.94,1.94,0,0,0,.62-.6,2.74,2.74,0,0,0,.36-.86,4.24,4.24,0,0,0,.12-1v-3.52h.82V165Z"/><path d="M197.35,158.29v1.57h0a2.58,2.58,0,0,1,1-1.26,2.53,2.53,0,0,1,1.57-.4V159a2.48,2.48,0,0,0-1,.15,2.28,2.28,0,0,0-.79.5,2.25,2.25,0,0,0-.51.77,2.57,2.57,0,0,0-.18,1V165h-.82v-6.71Z"/><path d="M201,162.78a2.5,2.5,0,0,0,.4.85,2.26,2.26,0,0,0,.69.62,1.92,1.92,0,0,0,1,.25,2,2,0,0,0,1.4-.47,2.46,2.46,0,0,0,.7-1.25H206a3.27,3.27,0,0,1-1,1.77,2.85,2.85,0,0,1-2,.62,3.12,3.12,0,0,1-1.37-.28,2.52,2.52,0,0,1-.94-.77,3.33,3.33,0,0,1-.54-1.13,5.17,5.17,0,0,1-.17-1.36,4.9,4.9,0,0,1,.17-1.3,3.48,3.48,0,0,1,.54-1.14,2.71,2.71,0,0,1,.94-.81,2.9,2.9,0,0,1,1.37-.31,2.65,2.65,0,0,1,2.31,1.18,3.52,3.52,0,0,1,.51,1.21,5.28,5.28,0,0,1,.13,1.38h-5.16A3.61,3.61,0,0,0,201,162.78Zm4.06-2.5a2.45,2.45,0,0,0-.42-.76,2.09,2.09,0,0,0-.66-.53,1.9,1.9,0,0,0-.88-.2,1.92,1.92,0,0,0-.9.2,2.1,2.1,0,0,0-.66.53,2.64,2.64,0,0,0-.44.77,3.78,3.78,0,0,0-.21.89h4.34A2.94,2.94,0,0,0,205,160.28Z"/><path d="M211.19,158.29v7.32a4.19,4.19,0,0,1-.06.72,1.58,1.58,0,0,1-.22.59,1.17,1.17,0,0,1-.44.4,1.5,1.5,0,0,1-.71.15h-.56v-.68l.22,0h.21q.48,0,.61-.28a1.64,1.64,0,0,0,.13-.7v-7.51Zm0-2.57V157h-.82v-1.31Z"/><path d="M212.73,159.33a1.92,1.92,0,0,1,.57-.7,2.4,2.4,0,0,1,.84-.4,4.1,4.1,0,0,1,1.07-.13,4.67,4.67,0,0,1,.88.08,2.13,2.13,0,0,1,.79.32,1.73,1.73,0,0,1,.57.66,2.37,2.37,0,0,1,.22,1.1v3.56a.43.43,0,0,0,.48.49.63.63,0,0,0,.26-.05v.69l-.25,0h-.28a1.23,1.23,0,0,1-.5-.08.67.67,0,0,1-.29-.24.9.9,0,0,1-.14-.37,3.08,3.08,0,0,1,0-.47h0a5.44,5.44,0,0,1-.45.58,2.22,2.22,0,0,1-.51.42,2.33,2.33,0,0,1-.64.26,3.49,3.49,0,0,1-.85.09,3.36,3.36,0,0,1-.88-.11,2,2,0,0,1-.71-.35,1.69,1.69,0,0,1-.48-.61,2,2,0,0,1-.18-.88,1.74,1.74,0,0,1,.31-1.1,2,2,0,0,1,.83-.6,4.73,4.73,0,0,1,1.16-.29l1.31-.16.46-.07a.8.8,0,0,0,.33-.14.62.62,0,0,0,.2-.27,1.14,1.14,0,0,0,.07-.44,1.5,1.5,0,0,0-.14-.68,1.08,1.08,0,0,0-.38-.42,1.51,1.51,0,0,0-.56-.21,3.76,3.76,0,0,0-.68-.06,2.07,2.07,0,0,0-1.27.37,1.45,1.45,0,0,0-.52,1.19h-.82A2.71,2.71,0,0,1,212.73,159.33Zm4.09,2a.47.47,0,0,1-.3.21l-.39.09-1.07.16a5.89,5.89,0,0,0-1,.21,2,2,0,0,0-.75.41,1,1,0,0,0-.29.76,1.19,1.19,0,0,0,.12.55,1.32,1.32,0,0,0,.33.42,1.43,1.43,0,0,0,.48.27,1.76,1.76,0,0,0,.56.09,2.81,2.81,0,0,0,.9-.14,2.2,2.2,0,0,0,.75-.42,2,2,0,0,0,.7-1.55v-1.07Z"/><path d="M219.07,158.29l2.11,5.89h0l2.08-5.89h.84L221.62,165h-.87l-2.59-6.71Z"/><path d="M224.73,159.33a1.92,1.92,0,0,1,.57-.7,2.4,2.4,0,0,1,.84-.4,4.1,4.1,0,0,1,1.07-.13,4.67,4.67,0,0,1,.88.08,2.13,2.13,0,0,1,.79.32,1.73,1.73,0,0,1,.57.66,2.37,2.37,0,0,1,.22,1.1v3.56a.43.43,0,0,0,.48.49.63.63,0,0,0,.26-.05v.69l-.25,0h-.28a1.23,1.23,0,0,1-.5-.08.67.67,0,0,1-.29-.24.9.9,0,0,1-.14-.37,3.08,3.08,0,0,1,0-.47h0a5.44,5.44,0,0,1-.45.58,2.22,2.22,0,0,1-.51.42,2.33,2.33,0,0,1-.64.26,3.49,3.49,0,0,1-.85.09,3.36,3.36,0,0,1-.88-.11,2,2,0,0,1-.71-.35,1.69,1.69,0,0,1-.48-.61,2,2,0,0,1-.18-.88,1.74,1.74,0,0,1,.31-1.1,2,2,0,0,1,.83-.6,4.73,4.73,0,0,1,1.16-.29l1.31-.16.46-.07a.8.8,0,0,0,.33-.14.62.62,0,0,0,.2-.27,1.14,1.14,0,0,0,.07-.44,1.5,1.5,0,0,0-.14-.68,1.08,1.08,0,0,0-.38-.42,1.51,1.51,0,0,0-.56-.21,3.76,3.76,0,0,0-.68-.06,2.07,2.07,0,0,0-1.27.37,1.45,1.45,0,0,0-.52,1.19h-.82A2.71,2.71,0,0,1,224.73,159.33Zm4.09,2a.47.47,0,0,1-.3.21l-.39.09-1.07.16a5.89,5.89,0,0,0-1,.21,2,2,0,0,0-.75.41,1,1,0,0,0-.29.76,1.19,1.19,0,0,0,.12.55,1.32,1.32,0,0,0,.33.42,1.43,1.43,0,0,0,.48.27,1.76,1.76,0,0,0,.56.09,2.81,2.81,0,0,0,.9-.14,2.2,2.2,0,0,0,.75-.42,2,2,0,0,0,.7-1.55v-1.07Z"/><path d="M235,159.6a1.32,1.32,0,0,0-.38-.46,1.6,1.6,0,0,0-.55-.27,2.53,2.53,0,0,0-.66-.08,2.69,2.69,0,0,0-.55.06,1.7,1.7,0,0,0-.51.19,1.11,1.11,0,0,0-.38.36,1,1,0,0,0-.14.55.77.77,0,0,0,.14.46,1.21,1.21,0,0,0,.34.32,2.21,2.21,0,0,0,.46.21l.46.14,1.09.25a3.18,3.18,0,0,1,.7.19,2.25,2.25,0,0,1,.61.36,1.74,1.74,0,0,1,.44.55,1.63,1.63,0,0,1,.17.77,1.68,1.68,0,0,1-.25.93,2,2,0,0,1-.63.62,2.69,2.69,0,0,1-.86.34,4.49,4.49,0,0,1-.95.1,3.08,3.08,0,0,1-1.92-.56,2.38,2.38,0,0,1-.84-1.79h.82a1.62,1.62,0,0,0,.6,1.25,2.19,2.19,0,0,0,1.37.42,3.07,3.07,0,0,0,.62-.06,2,2,0,0,0,.59-.22,1.42,1.42,0,0,0,.45-.4,1,1,0,0,0,.18-.59.94.94,0,0,0-.12-.5,1.07,1.07,0,0,0-.33-.34,2.1,2.1,0,0,0-.47-.23l-.54-.16-1.05-.23a6,6,0,0,1-.74-.24,2.37,2.37,0,0,1-.59-.34,1.41,1.41,0,0,1-.4-.49A1.63,1.63,0,0,1,231,160a1.61,1.61,0,0,1,.23-.87,1.77,1.77,0,0,1,.59-.58,2.76,2.76,0,0,1,.81-.32,3.93,3.93,0,0,1,.89-.1,3.29,3.29,0,0,1,.94.13,2.17,2.17,0,0,1,.77.4,2,2,0,0,1,.53.68,2.42,2.42,0,0,1,.22.95h-.82A1.54,1.54,0,0,0,235,159.6Z"/><path d="M241.27,159.22a1.78,1.78,0,0,0-1.27-.43,2.07,2.07,0,0,0-1,.25,2.25,2.25,0,0,0-.73.65,2.94,2.94,0,0,0-.44.92,3.74,3.74,0,0,0,0,2.09,2.94,2.94,0,0,0,.44.92,2.25,2.25,0,0,0,.73.65,2.07,2.07,0,0,0,1,.25,1.81,1.81,0,0,0,.71-.14,1.9,1.9,0,0,0,.6-.4,2.12,2.12,0,0,0,.43-.6,2.25,2.25,0,0,0,.21-.77h.82a3.09,3.09,0,0,1-.9,1.9,2.63,2.63,0,0,1-1.87.68,3.14,3.14,0,0,1-1.36-.28,2.88,2.88,0,0,1-1-.76A3.31,3.31,0,0,1,237,163a4.63,4.63,0,0,1,0-2.74,3.31,3.31,0,0,1,.61-1.12,3,3,0,0,1,1-.77,3.08,3.08,0,0,1,1.36-.29,2.92,2.92,0,0,1,1.83.57,2.44,2.44,0,0,1,.89,1.73h-.82A2.25,2.25,0,0,0,241.27,159.22Z"/><path d="M244.48,158.29v1.57h0a2.58,2.58,0,0,1,1-1.26,2.53,2.53,0,0,1,1.57-.4V159a2.48,2.48,0,0,0-1,.15,2.28,2.28,0,0,0-.79.5,2.25,2.25,0,0,0-.51.77,2.57,2.57,0,0,0-.18,1V165h-.82v-6.71Z"/><path d="M248.52,155.72V157h-.82v-1.31Zm0,2.57V165h-.82v-6.71Z"/><path d="M250.63,158.29v1.27h0a2.2,2.2,0,0,1,.93-1.09,2.81,2.81,0,0,1,1.46-.38,2.92,2.92,0,0,1,1.33.29,2.73,2.73,0,0,1,.94.77,3.29,3.29,0,0,1,.56,1.13,5.17,5.17,0,0,1,0,2.72,3.3,3.3,0,0,1-.56,1.13,2.66,2.66,0,0,1-.94.77,3,3,0,0,1-1.33.28,3,3,0,0,1-.73-.09,2.56,2.56,0,0,1-.68-.27,2.24,2.24,0,0,1-.55-.46,1.94,1.94,0,0,1-.37-.64h0v3.74h-.82v-9.18Zm4.49,2.32a2.85,2.85,0,0,0-.39-.92,2.15,2.15,0,0,0-.68-.66,1.89,1.89,0,0,0-1-.25,2.45,2.45,0,0,0-1.13.23,2,2,0,0,0-.73.62,2.46,2.46,0,0,0-.38.91,5.2,5.2,0,0,0-.11,1.09,4.37,4.37,0,0,0,.12,1,2.69,2.69,0,0,0,.4.92,2.16,2.16,0,0,0,.73.66,2.2,2.2,0,0,0,1.1.25,1.89,1.89,0,0,0,1-.25,2.15,2.15,0,0,0,.68-.66,2.85,2.85,0,0,0,.39-.92,4.37,4.37,0,0,0,0-2.07Z"/><path d="M259.6,158.29V159h-1.37v4.52a1.48,1.48,0,0,0,.11.63q.11.23.55.25a6.4,6.4,0,0,0,.7,0V165h-.73a1.21,1.21,0,0,1-1.46-1.5V159h-1.17v-.69h1.17v-2h.82v2Z"/><path d="M260.74,163.62h1.09V165h-1.09Z"/><path d="M273.68,157.57a2.62,2.62,0,0,0-.65-.71,2.91,2.91,0,0,0-.84-.44,3.14,3.14,0,0,0-1-.15,3.35,3.35,0,0,0-1.59.35,3.14,3.14,0,0,0-1.09.93,4,4,0,0,0-.62,1.31,5.63,5.63,0,0,0,0,3,4,4,0,0,0,.62,1.31,3.14,3.14,0,0,0,1.09.93,3.34,3.34,0,0,0,1.59.35,2.82,2.82,0,0,0,1.17-.23,2.78,2.78,0,0,0,.9-.64,3.26,3.26,0,0,0,.61-.94,3.91,3.91,0,0,0,.3-1.16h.88a5,5,0,0,1-.4,1.55,3.8,3.8,0,0,1-.81,1.17,3.43,3.43,0,0,1-1.16.74,4.08,4.08,0,0,1-1.49.26,4.39,4.39,0,0,1-1.92-.4,4,4,0,0,1-1.37-1.06,4.51,4.51,0,0,1-.82-1.53,6.3,6.3,0,0,1,0-3.67,4.59,4.59,0,0,1,.82-1.54,4,4,0,0,1,1.37-1.07,4.65,4.65,0,0,1,3.21-.2,3.77,3.77,0,0,1,1.14.58,3.4,3.4,0,0,1,.86.94,3.19,3.19,0,0,1,.44,1.29h-.88A3,3,0,0,0,273.68,157.57Z"/><path d="M280.3,158.38a3,3,0,0,1,1,.77,3.33,3.33,0,0,1,.61,1.12,4.63,4.63,0,0,1,0,2.74,3.33,3.33,0,0,1-.61,1.12,2.88,2.88,0,0,1-1,.76,3.44,3.44,0,0,1-2.72,0,2.88,2.88,0,0,1-1-.76A3.31,3.31,0,0,1,276,163a4.63,4.63,0,0,1,0-2.74,3.31,3.31,0,0,1,.61-1.12,3,3,0,0,1,1-.77,3.37,3.37,0,0,1,2.72,0Zm-2.39.65a2.25,2.25,0,0,0-.73.65,2.94,2.94,0,0,0-.44.92,3.74,3.74,0,0,0,0,2.09,2.94,2.94,0,0,0,.44.92,2.25,2.25,0,0,0,.73.65,2.26,2.26,0,0,0,2.05,0,2.25,2.25,0,0,0,.74-.65,3,3,0,0,0,.44-.92,3.74,3.74,0,0,0,0-2.09,3,3,0,0,0-.44-.92A2.26,2.26,0,0,0,280,159a2.26,2.26,0,0,0-2.05,0Z"/><path d="M284,158.29v1.16h0a2,2,0,0,1,.83-1,2.45,2.45,0,0,1,1.31-.37,3.31,3.31,0,0,1,1.18.18,1.87,1.87,0,0,1,.76.51,1.92,1.92,0,0,1,.4.81,4.57,4.57,0,0,1,.12,1.08V165h-.82v-4.19a3.9,3.9,0,0,0-.08-.8,1.71,1.71,0,0,0-.27-.64,1.33,1.33,0,0,0-.53-.43,1.93,1.93,0,0,0-.83-.16,2.09,2.09,0,0,0-.88.18,1.9,1.9,0,0,0-.65.48,2.22,2.22,0,0,0-.42.73,3,3,0,0,0-.16.92V165h-.82v-6.71Z"/><path d="M289.9,158.29l2.11,5.89h0l2.08-5.89H295L292.45,165h-.87L289,158.29Z"/><path d="M296,162.78a2.5,2.5,0,0,0,.4.85,2.26,2.26,0,0,0,.69.62,1.92,1.92,0,0,0,1,.25,2,2,0,0,0,1.4-.47,2.46,2.46,0,0,0,.7-1.25H301a3.27,3.27,0,0,1-1,1.77,2.85,2.85,0,0,1-2,.62,3.12,3.12,0,0,1-1.37-.28,2.52,2.52,0,0,1-.94-.77,3.33,3.33,0,0,1-.54-1.13,5.17,5.17,0,0,1-.17-1.36,4.9,4.9,0,0,1,.17-1.3,3.48,3.48,0,0,1,.54-1.14,2.71,2.71,0,0,1,.94-.81,2.9,2.9,0,0,1,1.37-.31,2.65,2.65,0,0,1,2.31,1.18,3.52,3.52,0,0,1,.51,1.21,5.28,5.28,0,0,1,.13,1.38h-5.16A3.61,3.61,0,0,0,296,162.78Zm4.06-2.5a2.45,2.45,0,0,0-.42-.76A2.09,2.09,0,0,0,299,159a1.9,1.9,0,0,0-.88-.2,1.92,1.92,0,0,0-.9.2,2.1,2.1,0,0,0-.66.53,2.64,2.64,0,0,0-.44.77,3.78,3.78,0,0,0-.21.89h4.34A2.94,2.94,0,0,0,300,160.28Z"/><path d="M302.74,158.29v1.57h0a2.58,2.58,0,0,1,1-1.26,2.53,2.53,0,0,1,1.57-.4V159a2.48,2.48,0,0,0-1,.15,2.28,2.28,0,0,0-.79.5,2.25,2.25,0,0,0-.51.77,2.57,2.57,0,0,0-.18,1V165H302v-6.71Z"/><path d="M309,158.29V159H307.6v4.52a1.48,1.48,0,0,0,.11.63q.11.23.55.25a6.4,6.4,0,0,0,.7,0V165h-.73a1.21,1.21,0,0,1-1.46-1.5V159h-1.17v-.69h1.17v-2h.82v2Z"/><path d="M311.18,165a2.27,2.27,0,0,1-.07.57,2,2,0,0,1-.21.52,1.68,1.68,0,0,1-.36.42,1.29,1.29,0,0,1-.5.26v-.56a.59.59,0,0,0,.27-.19,1.42,1.42,0,0,0,.19-.32,1.53,1.53,0,0,0,.11-.36,1.29,1.29,0,0,0,0-.33h-.55v-1.38h1.09Z"/><path d="M320.33,159.6a1.32,1.32,0,0,0-.38-.46,1.6,1.6,0,0,0-.55-.27,2.53,2.53,0,0,0-.66-.08,2.69,2.69,0,0,0-.55.06,1.7,1.7,0,0,0-.51.19,1.11,1.11,0,0,0-.38.36,1,1,0,0,0-.14.55.77.77,0,0,0,.14.46,1.21,1.21,0,0,0,.34.32,2.21,2.21,0,0,0,.46.21l.46.14,1.09.25a3.18,3.18,0,0,1,.7.19,2.25,2.25,0,0,1,.61.36,1.74,1.74,0,0,1,.44.55,1.63,1.63,0,0,1,.17.77,1.68,1.68,0,0,1-.25.93,2,2,0,0,1-.63.62,2.69,2.69,0,0,1-.86.34,4.49,4.49,0,0,1-.95.1,3.08,3.08,0,0,1-1.92-.56,2.38,2.38,0,0,1-.84-1.79h.82a1.62,1.62,0,0,0,.6,1.25,2.19,2.19,0,0,0,1.37.42,3.07,3.07,0,0,0,.62-.06,2,2,0,0,0,.59-.22,1.42,1.42,0,0,0,.45-.4,1,1,0,0,0,.18-.59.94.94,0,0,0-.12-.5,1.07,1.07,0,0,0-.33-.34,2.1,2.1,0,0,0-.47-.23l-.54-.16-1.05-.23a6,6,0,0,1-.74-.24,2.37,2.37,0,0,1-.59-.34,1.41,1.41,0,0,1-.4-.49,1.63,1.63,0,0,1-.14-.72,1.61,1.61,0,0,1,.23-.87,1.77,1.77,0,0,1,.59-.58,2.76,2.76,0,0,1,.81-.32,3.93,3.93,0,0,1,.89-.1,3.29,3.29,0,0,1,.94.13,2.17,2.17,0,0,1,.77.4,2,2,0,0,1,.53.68,2.42,2.42,0,0,1,.22.95h-.82A1.54,1.54,0,0,0,320.33,159.6Z"/><path d="M323.11,162.78a2.5,2.5,0,0,0,.4.85,2.26,2.26,0,0,0,.69.62,1.92,1.92,0,0,0,1,.25,2,2,0,0,0,1.4-.47,2.46,2.46,0,0,0,.7-1.25h.82a3.27,3.27,0,0,1-1,1.77,2.85,2.85,0,0,1-2,.62,3.12,3.12,0,0,1-1.37-.28,2.52,2.52,0,0,1-.94-.77,3.33,3.33,0,0,1-.54-1.13,5.17,5.17,0,0,1-.17-1.36,4.9,4.9,0,0,1,.17-1.3,3.48,3.48,0,0,1,.54-1.14,2.71,2.71,0,0,1,.94-.81,2.9,2.9,0,0,1,1.37-.31,2.65,2.65,0,0,1,2.31,1.18,3.52,3.52,0,0,1,.51,1.21,5.28,5.28,0,0,1,.13,1.38H323A3.61,3.61,0,0,0,323.11,162.78Zm4.06-2.5a2.45,2.45,0,0,0-.42-.76,2.09,2.09,0,0,0-.66-.53,1.9,1.9,0,0,0-.88-.2,1.92,1.92,0,0,0-.9.2,2.1,2.1,0,0,0-.66.53,2.64,2.64,0,0,0-.44.77,3.78,3.78,0,0,0-.21.89h4.34A2.94,2.94,0,0,0,327.17,160.28Z"/><path d="M329.88,158.29v1.57h0a2.58,2.58,0,0,1,1-1.26,2.53,2.53,0,0,1,1.57-.4V159a2.48,2.48,0,0,0-1,.15,2.28,2.28,0,0,0-.79.5,2.25,2.25,0,0,0-.51.77,2.57,2.57,0,0,0-.18,1V165h-.82v-6.71Z"/><path d="M333.91,155.72V157h-.82v-1.31Zm0,2.57V165h-.82v-6.71Z"/><path d="M335.47,159.33a1.92,1.92,0,0,1,.57-.7,2.4,2.4,0,0,1,.84-.4,4.1,4.1,0,0,1,1.07-.13,4.67,4.67,0,0,1,.88.08,2.13,2.13,0,0,1,.79.32,1.73,1.73,0,0,1,.57.66,2.37,2.37,0,0,1,.22,1.1v3.56a.43.43,0,0,0,.48.49.63.63,0,0,0,.26-.05v.69l-.25,0h-.28a1.23,1.23,0,0,1-.5-.08.67.67,0,0,1-.29-.24.9.9,0,0,1-.14-.37,3.08,3.08,0,0,1,0-.47h0a5.44,5.44,0,0,1-.45.58,2.22,2.22,0,0,1-.51.42,2.33,2.33,0,0,1-.64.26,3.49,3.49,0,0,1-.85.09,3.36,3.36,0,0,1-.88-.11,2,2,0,0,1-.71-.35,1.69,1.69,0,0,1-.48-.61,2,2,0,0,1-.18-.88,1.74,1.74,0,0,1,.31-1.1,2,2,0,0,1,.83-.6,4.73,4.73,0,0,1,1.16-.29l1.31-.16L339,161a.8.8,0,0,0,.33-.14.62.62,0,0,0,.2-.27,1.14,1.14,0,0,0,.07-.44,1.5,1.5,0,0,0-.14-.68,1.08,1.08,0,0,0-.38-.42,1.51,1.51,0,0,0-.56-.21,3.76,3.76,0,0,0-.68-.06,2.07,2.07,0,0,0-1.27.37,1.45,1.45,0,0,0-.52,1.19h-.82A2.71,2.71,0,0,1,335.47,159.33Zm4.09,2a.47.47,0,0,1-.3.21l-.39.09-1.07.16a5.89,5.89,0,0,0-1,.21,2,2,0,0,0-.75.41,1,1,0,0,0-.29.76,1.19,1.19,0,0,0,.12.55,1.32,1.32,0,0,0,.33.42,1.43,1.43,0,0,0,.48.27,1.76,1.76,0,0,0,.56.09,2.81,2.81,0,0,0,.9-.14,2.2,2.2,0,0,0,.75-.42,2,2,0,0,0,.7-1.55v-1.07Z"/><path d="M342.71,155.72V165h-.82v-9.28Z"/><path d="M344.9,155.72V157h-.82v-1.31Zm0,2.57V165h-.82v-6.71Z"/><path d="M351.26,164.31V165h-5.6v-.66L350,159H346v-.69h5.12v.58l-4.43,5.43Z"/><path d="M352.45,162.78a2.5,2.5,0,0,0,.4.85,2.26,2.26,0,0,0,.69.62,1.92,1.92,0,0,0,1,.25,2,2,0,0,0,1.4-.47,2.46,2.46,0,0,0,.7-1.25h.82a3.27,3.27,0,0,1-1,1.77,2.85,2.85,0,0,1-2,.62,3.12,3.12,0,0,1-1.37-.28,2.52,2.52,0,0,1-.94-.77,3.33,3.33,0,0,1-.54-1.13,5.17,5.17,0,0,1-.17-1.36,4.9,4.9,0,0,1,.17-1.3,3.48,3.48,0,0,1,.54-1.14,2.71,2.71,0,0,1,.94-.81,2.9,2.9,0,0,1,1.37-.31,2.65,2.65,0,0,1,2.31,1.18,3.52,3.52,0,0,1,.51,1.21,5.28,5.28,0,0,1,.13,1.38h-5.16A3.61,3.61,0,0,0,352.45,162.78Zm4.06-2.5a2.45,2.45,0,0,0-.42-.76,2.09,2.09,0,0,0-.66-.53,1.9,1.9,0,0,0-.88-.2,1.92,1.92,0,0,0-.9.2,2.1,2.1,0,0,0-.66.53,2.64,2.64,0,0,0-.44.77,3.78,3.78,0,0,0-.21.89h4.34A2.94,2.94,0,0,0,356.51,160.28Z"/><path d="M359.67,165a2.27,2.27,0,0,1-.07.57,2,2,0,0,1-.21.52,1.68,1.68,0,0,1-.36.42,1.29,1.29,0,0,1-.5.26v-.56a.59.59,0,0,0,.27-.19,1.42,1.42,0,0,0,.19-.32,1.53,1.53,0,0,0,.11-.36,1.29,1.29,0,0,0,0-.33h-.55v-1.38h1.09Z"/><path d="M369.64,165v-1.21h0a2.32,2.32,0,0,1-.94,1,2.69,2.69,0,0,1-1.37.36,3,3,0,0,1-1.09-.18,1.8,1.8,0,0,1-.73-.5,2,2,0,0,1-.41-.79,4,4,0,0,1-.13-1.07v-4.35h.82v4.37a2.18,2.18,0,0,0,.42,1.38,2.11,2.11,0,0,0,2.28.24,1.94,1.94,0,0,0,.62-.6,2.74,2.74,0,0,0,.36-.86,4.24,4.24,0,0,0,.12-1v-3.52h.82V165Z"/><path d="M377.26,165.79a2.62,2.62,0,0,1-.51,1,2.24,2.24,0,0,1-.92.64,3.82,3.82,0,0,1-1.38.22,4.15,4.15,0,0,1-1-.12,2.8,2.8,0,0,1-.87-.36,2.16,2.16,0,0,1-.64-.63,1.88,1.88,0,0,1-.29-.92h.82a1.45,1.45,0,0,0,.25.63,1.5,1.5,0,0,0,.46.41,2,2,0,0,0,.59.23,3.07,3.07,0,0,0,.66.07,2,2,0,0,0,1.65-.65,3,3,0,0,0,.51-1.87v-.91h0a2.39,2.39,0,0,1-.84,1,2.24,2.24,0,0,1-1.29.38,3.24,3.24,0,0,1-1.38-.27,2.56,2.56,0,0,1-.94-.73,3,3,0,0,1-.54-1.1,5.15,5.15,0,0,1-.17-1.35,4.17,4.17,0,0,1,.2-1.31,3.23,3.23,0,0,1,.58-1.08,2.74,2.74,0,0,1,.95-.73,3,3,0,0,1,1.29-.27,2.35,2.35,0,0,1,.71.1,2.25,2.25,0,0,1,.6.29,2.59,2.59,0,0,1,.49.44,2,2,0,0,1,.33.52h0v-1.16h.82v6.16A5.1,5.1,0,0,1,377.26,165.79ZM375.38,164a2.13,2.13,0,0,0,.68-.6,2.63,2.63,0,0,0,.41-.85,3.57,3.57,0,0,0,.14-1,4.27,4.27,0,0,0-.12-1,2.85,2.85,0,0,0-.38-.9,2,2,0,0,0-.67-.65,1.89,1.89,0,0,0-1-.25,2,2,0,0,0-1,.24,2.13,2.13,0,0,0-.69.63,2.62,2.62,0,0,0-.4.89,4.22,4.22,0,0,0-.12,1,3.8,3.8,0,0,0,.13,1,2.55,2.55,0,0,0,.4.85,2.08,2.08,0,0,0,.69.6,2,2,0,0,0,1,.23A1.87,1.87,0,0,0,375.38,164Z"/><path d="M379.6,155.72V165h-.82v-9.28Z"/><path d="M381.79,155.72V157H381v-1.31Zm0,2.57V165H381v-6.71Z"/><path d="M384.45,159v6h-.82v-6h-1.14v-.69h1.14v-.61a4.46,4.46,0,0,1,.07-.79,1.53,1.53,0,0,1,.25-.62,1.19,1.19,0,0,1,.5-.4,2,2,0,0,1,.81-.14h.34l.35,0v.7l-.31,0-.29,0a1.06,1.06,0,0,0-.52.1.64.64,0,0,0-.27.28,1.07,1.07,0,0,0-.1.41c0,.16,0,.32,0,.51v.58h1.33V159Z"/><path d="M386.92,158.29l2.21,5.72,2.07-5.72H392L389.1,166a7.6,7.6,0,0,1-.34.71,1.62,1.62,0,0,1-.34.44,1.14,1.14,0,0,1-.44.23,2.43,2.43,0,0,1-.64.07l-.38,0a.79.79,0,0,1-.24,0v-.69l.28,0,.28,0a1.12,1.12,0,0,0,.45-.08,1,1,0,0,0,.31-.21,1.22,1.22,0,0,0,.22-.33l.2-.43.29-.75L386,158.29Z"/><path d="M393.2,165a2.27,2.27,0,0,1-.07.57,2,2,0,0,1-.21.52,1.68,1.68,0,0,1-.36.42,1.29,1.29,0,0,1-.5.26v-.56a.59.59,0,0,0,.27-.19,1.42,1.42,0,0,0,.19-.32,1.53,1.53,0,0,0,.11-.36,1.29,1.29,0,0,0,0-.33h-.55v-1.38h1.09Z"/><path d="M399.32,155.72V157h-.82v-1.31Zm0,2.57V165h-.82v-6.71Z"/><path d="M401.5,158.29v1.16h0a2,2,0,0,1,.83-1,2.45,2.45,0,0,1,1.31-.37,3.31,3.31,0,0,1,1.18.18,1.87,1.87,0,0,1,.76.51,1.92,1.92,0,0,1,.4.81,4.57,4.57,0,0,1,.12,1.08V165h-.82v-4.19a3.9,3.9,0,0,0-.08-.8,1.71,1.71,0,0,0-.27-.64,1.33,1.33,0,0,0-.53-.43,1.93,1.93,0,0,0-.83-.16,2.09,2.09,0,0,0-.88.18,1.9,1.9,0,0,0-.65.48,2.22,2.22,0,0,0-.42.73,3,3,0,0,0-.16.92V165h-.82v-6.71Z"/><path d="M408.26,158.29v7.32a4.19,4.19,0,0,1-.06.72,1.58,1.58,0,0,1-.22.59,1.17,1.17,0,0,1-.44.4,1.5,1.5,0,0,1-.71.15h-.56v-.68l.22,0h.21q.48,0,.61-.28a1.64,1.64,0,0,0,.13-.7v-7.51Zm0-2.57V157h-.82v-1.31Z"/><path d="M410.27,162.78a2.5,2.5,0,0,0,.4.85,2.26,2.26,0,0,0,.69.62,1.92,1.92,0,0,0,1,.25,2,2,0,0,0,1.4-.47,2.46,2.46,0,0,0,.7-1.25h.82a3.27,3.27,0,0,1-1,1.77,2.85,2.85,0,0,1-2,.62,3.12,3.12,0,0,1-1.37-.28,2.52,2.52,0,0,1-.94-.77,3.33,3.33,0,0,1-.54-1.13,5.17,5.17,0,0,1-.17-1.36,4.9,4.9,0,0,1,.17-1.3,3.48,3.48,0,0,1,.54-1.14,2.71,2.71,0,0,1,.94-.81,2.9,2.9,0,0,1,1.37-.31,2.65,2.65,0,0,1,2.31,1.18,3.52,3.52,0,0,1,.51,1.21,5.28,5.28,0,0,1,.13,1.38h-5.16A3.61,3.61,0,0,0,410.27,162.78Zm4.06-2.5a2.45,2.45,0,0,0-.42-.76,2.09,2.09,0,0,0-.66-.53,1.9,1.9,0,0,0-.88-.2,1.92,1.92,0,0,0-.9.2,2.1,2.1,0,0,0-.66.53,2.64,2.64,0,0,0-.44.77,3.78,3.78,0,0,0-.21.89h4.34A2.94,2.94,0,0,0,414.33,160.28Z"/><path d="M420.41,159.22a1.78,1.78,0,0,0-1.27-.43,2.07,2.07,0,0,0-1,.25,2.25,2.25,0,0,0-.73.65,2.94,2.94,0,0,0-.44.92,3.74,3.74,0,0,0,0,2.09,2.94,2.94,0,0,0,.44.92,2.25,2.25,0,0,0,.73.65,2.07,2.07,0,0,0,1,.25,1.81,1.81,0,0,0,.71-.14,1.9,1.9,0,0,0,.6-.4,2.12,2.12,0,0,0,.43-.6,2.25,2.25,0,0,0,.21-.77h.82a3.09,3.09,0,0,1-.9,1.9,2.63,2.63,0,0,1-1.87.68,3.14,3.14,0,0,1-1.36-.28,2.88,2.88,0,0,1-1-.76,3.31,3.31,0,0,1-.61-1.12,4.63,4.63,0,0,1,0-2.74,3.31,3.31,0,0,1,.61-1.12,3,3,0,0,1,1-.77,3.08,3.08,0,0,1,1.36-.29,2.92,2.92,0,0,1,1.83.57,2.44,2.44,0,0,1,.89,1.73H421A2.25,2.25,0,0,0,420.41,159.22Z"/><path d="M425.5,158.29V159h-1.37v4.52a1.48,1.48,0,0,0,.11.63q.11.23.55.25a6.4,6.4,0,0,0,.7,0V165h-.73a1.21,1.21,0,0,1-1.46-1.5V159h-1.17v-.69h1.17v-2h.82v2Z"/><path d="M427.71,165a2.27,2.27,0,0,1-.07.57,2,2,0,0,1-.21.52,1.68,1.68,0,0,1-.36.42,1.29,1.29,0,0,1-.5.26v-.56a.59.59,0,0,0,.27-.19,1.42,1.42,0,0,0,.19-.32,1.53,1.53,0,0,0,.11-.36,1.29,1.29,0,0,0,0-.33h-.55v-1.38h1.09Z"/><path d="M433.17,159.33a1.92,1.92,0,0,1,.57-.7,2.4,2.4,0,0,1,.84-.4,4.1,4.1,0,0,1,1.07-.13,4.67,4.67,0,0,1,.88.08,2.13,2.13,0,0,1,.79.32,1.73,1.73,0,0,1,.57.66,2.37,2.37,0,0,1,.22,1.1v3.56a.43.43,0,0,0,.48.49.63.63,0,0,0,.26-.05v.69l-.25,0h-.28a1.23,1.23,0,0,1-.5-.08.67.67,0,0,1-.29-.24.9.9,0,0,1-.14-.37,3.08,3.08,0,0,1,0-.47h0a5.44,5.44,0,0,1-.45.58,2.22,2.22,0,0,1-.51.42,2.33,2.33,0,0,1-.64.26,3.49,3.49,0,0,1-.85.09,3.36,3.36,0,0,1-.88-.11,2,2,0,0,1-.71-.35,1.69,1.69,0,0,1-.48-.61,2,2,0,0,1-.18-.88,1.74,1.74,0,0,1,.31-1.1,2,2,0,0,1,.83-.6,4.73,4.73,0,0,1,1.16-.29l1.31-.16.46-.07a.8.8,0,0,0,.33-.14.62.62,0,0,0,.2-.27,1.14,1.14,0,0,0,.07-.44,1.5,1.5,0,0,0-.14-.68,1.08,1.08,0,0,0-.38-.42,1.51,1.51,0,0,0-.56-.21,3.76,3.76,0,0,0-.68-.06,2.07,2.07,0,0,0-1.27.37,1.45,1.45,0,0,0-.52,1.19h-.82A2.71,2.71,0,0,1,433.17,159.33Zm4.09,2a.47.47,0,0,1-.3.21l-.39.09-1.07.16a5.89,5.89,0,0,0-1,.21,2,2,0,0,0-.75.41,1,1,0,0,0-.29.76,1.19,1.19,0,0,0,.12.55,1.32,1.32,0,0,0,.33.42,1.43,1.43,0,0,0,.48.27,1.76,1.76,0,0,0,.56.09,2.81,2.81,0,0,0,.9-.14,2.2,2.2,0,0,0,.75-.42,2,2,0,0,0,.7-1.55v-1.07Z"/><path d="M440.4,158.29v1.16h0a2,2,0,0,1,.83-1,2.45,2.45,0,0,1,1.31-.37,3.31,3.31,0,0,1,1.18.18,1.87,1.87,0,0,1,.76.51,1.92,1.92,0,0,1,.4.81,4.57,4.57,0,0,1,.12,1.08V165h-.82v-4.19a3.9,3.9,0,0,0-.08-.8,1.71,1.71,0,0,0-.27-.64,1.33,1.33,0,0,0-.53-.43,1.93,1.93,0,0,0-.83-.16,2.09,2.09,0,0,0-.88.18,1.9,1.9,0,0,0-.65.48,2.22,2.22,0,0,0-.42.73,3,3,0,0,0-.16.92V165h-.82v-6.71Z"/><path d="M451.52,165v-1.27h0a1.93,1.93,0,0,1-.38.6,2.51,2.51,0,0,1-.58.46,3,3,0,0,1-.7.29,2.7,2.7,0,0,1-.73.1,3,3,0,0,1-1.33-.28,2.66,2.66,0,0,1-.94-.77,3.28,3.28,0,0,1-.56-1.13,5.17,5.17,0,0,1,0-2.72,3.27,3.27,0,0,1,.56-1.13,2.73,2.73,0,0,1,.94-.77,2.92,2.92,0,0,1,1.33-.29,3,3,0,0,1,.73.09,2.47,2.47,0,0,1,.67.28,2.38,2.38,0,0,1,.55.46,1.94,1.94,0,0,1,.37.64h0v-3.85h.82V165ZM447,162.68a2.85,2.85,0,0,0,.39.92,2.15,2.15,0,0,0,.68.66,1.89,1.89,0,0,0,1,.25,2.2,2.2,0,0,0,1.1-.25,2.18,2.18,0,0,0,.73-.66,2.71,2.71,0,0,0,.4-.92,4.37,4.37,0,0,0,0-2.07,2.71,2.71,0,0,0-.4-.92,2.18,2.18,0,0,0-.73-.66,2.2,2.2,0,0,0-1.1-.25,1.89,1.89,0,0,0-1,.25,2.15,2.15,0,0,0-.68.66,2.85,2.85,0,0,0-.39.92,4.4,4.4,0,0,0,0,2.07Z"/><path d="M460.94,159.6a1.32,1.32,0,0,0-.38-.46,1.6,1.6,0,0,0-.55-.27,2.53,2.53,0,0,0-.66-.08,2.69,2.69,0,0,0-.55.06,1.7,1.7,0,0,0-.51.19,1.11,1.11,0,0,0-.38.36,1,1,0,0,0-.14.55.77.77,0,0,0,.14.46,1.21,1.21,0,0,0,.34.32,2.21,2.21,0,0,0,.46.21l.46.14,1.09.25a3.18,3.18,0,0,1,.7.19,2.25,2.25,0,0,1,.61.36,1.74,1.74,0,0,1,.44.55,1.63,1.63,0,0,1,.17.77,1.68,1.68,0,0,1-.25.93,2,2,0,0,1-.63.62,2.69,2.69,0,0,1-.86.34,4.49,4.49,0,0,1-.95.1,3.08,3.08,0,0,1-1.92-.56,2.38,2.38,0,0,1-.84-1.79h.82a1.62,1.62,0,0,0,.6,1.25,2.19,2.19,0,0,0,1.37.42,3.07,3.07,0,0,0,.62-.06,2,2,0,0,0,.59-.22,1.42,1.42,0,0,0,.45-.4,1,1,0,0,0,.18-.59.94.94,0,0,0-.12-.5,1.07,1.07,0,0,0-.33-.34,2.1,2.1,0,0,0-.47-.23l-.54-.16-1.05-.23a6,6,0,0,1-.74-.24,2.37,2.37,0,0,1-.59-.34,1.41,1.41,0,0,1-.4-.49,1.63,1.63,0,0,1-.14-.72,1.61,1.61,0,0,1,.23-.87,1.77,1.77,0,0,1,.59-.58,2.76,2.76,0,0,1,.81-.32,3.93,3.93,0,0,1,.89-.1,3.29,3.29,0,0,1,.94.13,2.17,2.17,0,0,1,.77.4,2,2,0,0,1,.53.68,2.42,2.42,0,0,1,.22.95h-.82A1.54,1.54,0,0,0,460.94,159.6Z"/><path d="M467.23,159.22a1.78,1.78,0,0,0-1.27-.43,2.07,2.07,0,0,0-1,.25,2.25,2.25,0,0,0-.73.65,2.94,2.94,0,0,0-.44.92,3.74,3.74,0,0,0,0,2.09,2.94,2.94,0,0,0,.44.92,2.25,2.25,0,0,0,.73.65,2.07,2.07,0,0,0,1,.25,1.81,1.81,0,0,0,.71-.14,1.9,1.9,0,0,0,.6-.4,2.12,2.12,0,0,0,.43-.6,2.25,2.25,0,0,0,.21-.77h.82a3.09,3.09,0,0,1-.9,1.9,2.63,2.63,0,0,1-1.87.68,3.14,3.14,0,0,1-1.36-.28,2.88,2.88,0,0,1-1-.76A3.31,3.31,0,0,1,463,163a4.63,4.63,0,0,1,0-2.74,3.31,3.31,0,0,1,.61-1.12,3,3,0,0,1,1-.77,3.08,3.08,0,0,1,1.36-.29,2.92,2.92,0,0,1,1.83.57,2.44,2.44,0,0,1,.89,1.73h-.82A2.25,2.25,0,0,0,467.23,159.22Z"/><path d="M473.89,158.38a3,3,0,0,1,1,.77,3.33,3.33,0,0,1,.61,1.12,4.63,4.63,0,0,1,0,2.74,3.33,3.33,0,0,1-.61,1.12,2.88,2.88,0,0,1-1,.76,3.44,3.44,0,0,1-2.72,0,2.88,2.88,0,0,1-1-.76,3.31,3.31,0,0,1-.61-1.12,4.63,4.63,0,0,1,0-2.74,3.31,3.31,0,0,1,.61-1.12,3,3,0,0,1,1-.77,3.37,3.37,0,0,1,2.72,0Zm-2.39.65a2.25,2.25,0,0,0-.73.65,2.94,2.94,0,0,0-.44.92,3.74,3.74,0,0,0,0,2.09,2.94,2.94,0,0,0,.44.92,2.25,2.25,0,0,0,.73.65,2.26,2.26,0,0,0,2.05,0,2.25,2.25,0,0,0,.74-.65,3,3,0,0,0,.44-.92,3.74,3.74,0,0,0,0-2.09,3,3,0,0,0-.44-.92,2.26,2.26,0,0,0-.74-.65,2.26,2.26,0,0,0-2.05,0Z"/><path d="M477.5,158.29v1.27h0a2.2,2.2,0,0,1,.93-1.09,2.81,2.81,0,0,1,1.46-.38,2.92,2.92,0,0,1,1.33.29,2.73,2.73,0,0,1,.94.77,3.29,3.29,0,0,1,.56,1.13,5.17,5.17,0,0,1,0,2.72,3.3,3.3,0,0,1-.56,1.13,2.66,2.66,0,0,1-.94.77,3,3,0,0,1-1.33.28,3,3,0,0,1-.73-.09,2.56,2.56,0,0,1-.68-.27,2.24,2.24,0,0,1-.55-.46,1.94,1.94,0,0,1-.37-.64h0v3.74h-.82v-9.18Zm4.49,2.32a2.85,2.85,0,0,0-.39-.92,2.15,2.15,0,0,0-.68-.66,1.89,1.89,0,0,0-1-.25,2.45,2.45,0,0,0-1.13.23,2,2,0,0,0-.73.62,2.46,2.46,0,0,0-.38.91,5.2,5.2,0,0,0-.11,1.09,4.37,4.37,0,0,0,.12,1,2.69,2.69,0,0,0,.4.92,2.16,2.16,0,0,0,.73.66,2.2,2.2,0,0,0,1.1.25,1.89,1.89,0,0,0,1-.25,2.15,2.15,0,0,0,.68-.66,2.85,2.85,0,0,0,.39-.92,4.37,4.37,0,0,0,0-2.07Z"/><path d="M484.63,162.78a2.5,2.5,0,0,0,.4.85,2.26,2.26,0,0,0,.69.62,1.92,1.92,0,0,0,1,.25,2,2,0,0,0,1.4-.47,2.46,2.46,0,0,0,.7-1.25h.82a3.27,3.27,0,0,1-1,1.77,2.85,2.85,0,0,1-2,.62,3.12,3.12,0,0,1-1.37-.28,2.52,2.52,0,0,1-.94-.77,3.33,3.33,0,0,1-.54-1.13,5.17,5.17,0,0,1-.17-1.36,4.9,4.9,0,0,1,.17-1.3,3.48,3.48,0,0,1,.54-1.14,2.71,2.71,0,0,1,.94-.81,2.9,2.9,0,0,1,1.37-.31,2.65,2.65,0,0,1,2.31,1.18,3.52,3.52,0,0,1,.51,1.21,5.28,5.28,0,0,1,.13,1.38h-5.16A3.61,3.61,0,0,0,484.63,162.78Zm4.06-2.5a2.45,2.45,0,0,0-.42-.76,2.09,2.09,0,0,0-.66-.53,1.9,1.9,0,0,0-.88-.2,1.92,1.92,0,0,0-.9.2,2.1,2.1,0,0,0-.66.53,2.64,2.64,0,0,0-.44.77,3.78,3.78,0,0,0-.21.89h4.34A2.94,2.94,0,0,0,488.69,160.28Z"/><path d="M497.88,159.6a1.32,1.32,0,0,0-.38-.46,1.6,1.6,0,0,0-.55-.27,2.53,2.53,0,0,0-.66-.08,2.69,2.69,0,0,0-.55.06,1.7,1.7,0,0,0-.51.19,1.11,1.11,0,0,0-.38.36,1,1,0,0,0-.14.55.77.77,0,0,0,.14.46,1.21,1.21,0,0,0,.34.32,2.21,2.21,0,0,0,.46.21l.46.14,1.09.25a3.18,3.18,0,0,1,.7.19,2.25,2.25,0,0,1,.61.36,1.74,1.74,0,0,1,.44.55,1.63,1.63,0,0,1,.17.77,1.68,1.68,0,0,1-.25.93,2,2,0,0,1-.63.62,2.69,2.69,0,0,1-.86.34,4.49,4.49,0,0,1-.95.1,3.08,3.08,0,0,1-1.92-.56,2.38,2.38,0,0,1-.84-1.79h.82a1.62,1.62,0,0,0,.6,1.25,2.19,2.19,0,0,0,1.37.42,3.07,3.07,0,0,0,.62-.06,2,2,0,0,0,.59-.22,1.42,1.42,0,0,0,.45-.4,1,1,0,0,0,.18-.59.94.94,0,0,0-.12-.5,1.07,1.07,0,0,0-.33-.34,2.1,2.1,0,0,0-.47-.23l-.54-.16-1.05-.23a6,6,0,0,1-.74-.24,2.37,2.37,0,0,1-.59-.34,1.41,1.41,0,0,1-.4-.49,1.63,1.63,0,0,1-.14-.72,1.61,1.61,0,0,1,.23-.87,1.77,1.77,0,0,1,.59-.58,2.76,2.76,0,0,1,.81-.32,3.93,3.93,0,0,1,.89-.1,3.29,3.29,0,0,1,.94.13,2.17,2.17,0,0,1,.77.4,2,2,0,0,1,.53.68,2.42,2.42,0,0,1,.22.95H498A1.54,1.54,0,0,0,497.88,159.6Z"/><path d="M502.68,158.29V159h-1.37v4.52a1.48,1.48,0,0,0,.11.63q.11.23.55.25a6.4,6.4,0,0,0,.7,0V165H502a1.21,1.21,0,0,1-1.46-1.5V159h-1.17v-.69h1.17v-2h.82v2Z"/><path d="M504,158.29l2.21,5.72,2.07-5.72h.82L506.21,166a7.6,7.6,0,0,1-.34.71,1.62,1.62,0,0,1-.34.44,1.14,1.14,0,0,1-.44.23,2.43,2.43,0,0,1-.64.07l-.38,0a.79.79,0,0,1-.24,0v-.69l.28,0,.28,0a1.12,1.12,0,0,0,.45-.08,1,1,0,0,0,.31-.21,1.22,1.22,0,0,0,.22-.33l.2-.43.29-.75-2.68-6.68Z"/><path d="M510.62,155.72V165h-.82v-9.28Z"/><path d="M512.62,162.78a2.5,2.5,0,0,0,.4.85,2.26,2.26,0,0,0,.69.62,1.92,1.92,0,0,0,1,.25,2,2,0,0,0,1.4-.47,2.46,2.46,0,0,0,.7-1.25h.82a3.27,3.27,0,0,1-1,1.77,2.85,2.85,0,0,1-2,.62,3.12,3.12,0,0,1-1.37-.28,2.52,2.52,0,0,1-.94-.77,3.33,3.33,0,0,1-.54-1.13,5.17,5.17,0,0,1-.17-1.36,4.9,4.9,0,0,1,.17-1.3,3.48,3.48,0,0,1,.54-1.14,2.71,2.71,0,0,1,.94-.81,2.9,2.9,0,0,1,1.37-.31,2.65,2.65,0,0,1,2.31,1.18,3.52,3.52,0,0,1,.51,1.21,5.28,5.28,0,0,1,.13,1.38H512.5A3.61,3.61,0,0,0,512.62,162.78Zm4.06-2.5a2.45,2.45,0,0,0-.42-.76,2.09,2.09,0,0,0-.66-.53,1.9,1.9,0,0,0-.88-.2,1.92,1.92,0,0,0-.9.2,2.1,2.1,0,0,0-.66.53,2.64,2.64,0,0,0-.44.77,3.78,3.78,0,0,0-.21.89h4.34A2.94,2.94,0,0,0,516.68,160.28Z"/><path d="M522.5,159.6a1.32,1.32,0,0,0-.38-.46,1.6,1.6,0,0,0-.55-.27,2.53,2.53,0,0,0-.66-.08,2.69,2.69,0,0,0-.55.06,1.7,1.7,0,0,0-.51.19,1.11,1.11,0,0,0-.38.36,1,1,0,0,0-.14.55.77.77,0,0,0,.14.46,1.21,1.21,0,0,0,.34.32,2.21,2.21,0,0,0,.46.21l.46.14,1.09.25a3.18,3.18,0,0,1,.7.19,2.25,2.25,0,0,1,.61.36,1.74,1.74,0,0,1,.44.55,1.63,1.63,0,0,1,.17.77,1.68,1.68,0,0,1-.25.93,2,2,0,0,1-.63.62,2.69,2.69,0,0,1-.86.34,4.49,4.49,0,0,1-.95.1,3.08,3.08,0,0,1-1.92-.56,2.38,2.38,0,0,1-.84-1.79h.82a1.62,1.62,0,0,0,.6,1.25,2.19,2.19,0,0,0,1.37.42,3.07,3.07,0,0,0,.62-.06,2,2,0,0,0,.59-.22,1.42,1.42,0,0,0,.45-.4,1,1,0,0,0,.18-.59.94.94,0,0,0-.12-.5,1.07,1.07,0,0,0-.33-.34,2.1,2.1,0,0,0-.47-.23l-.54-.16-1.05-.23a6,6,0,0,1-.74-.24,2.37,2.37,0,0,1-.59-.34,1.41,1.41,0,0,1-.4-.49,1.63,1.63,0,0,1-.14-.72,1.61,1.61,0,0,1,.23-.87,1.77,1.77,0,0,1,.59-.58,2.76,2.76,0,0,1,.81-.32,3.93,3.93,0,0,1,.89-.1,3.29,3.29,0,0,1,.94.13,2.17,2.17,0,0,1,.77.4,2,2,0,0,1,.53.68,2.42,2.42,0,0,1,.22.95h-.82A1.54,1.54,0,0,0,522.5,159.6Z"/><path d="M529,155.72V157h-.82v-1.31Zm0,2.57V165h-.82v-6.71Z"/><path d="M531.15,158.29v1.16h0a2,2,0,0,1,.83-1,2.45,2.45,0,0,1,1.31-.37,3.31,3.31,0,0,1,1.18.18,1.87,1.87,0,0,1,.76.51,1.92,1.92,0,0,1,.4.81,4.57,4.57,0,0,1,.12,1.08V165H535v-4.19a3.9,3.9,0,0,0-.08-.8,1.71,1.71,0,0,0-.27-.64,1.33,1.33,0,0,0-.53-.43,1.93,1.93,0,0,0-.83-.16,2.09,2.09,0,0,0-.88.18,1.9,1.9,0,0,0-.65.48,2.22,2.22,0,0,0-.42.73,3,3,0,0,0-.16.92V165h-.82v-6.71Z"/><path d="M537.05,161h3.25v.75h-3.25Z"/><path d="M542.4,155.72v3.85h0a1.94,1.94,0,0,1,.37-.64,2.38,2.38,0,0,1,.55-.46,2.45,2.45,0,0,1,.68-.28,3,3,0,0,1,.73-.09,2.92,2.92,0,0,1,1.33.29,2.73,2.73,0,0,1,.94.77,3.29,3.29,0,0,1,.56,1.13,5.17,5.17,0,0,1,0,2.72,3.3,3.3,0,0,1-.56,1.13,2.66,2.66,0,0,1-.94.77,3,3,0,0,1-1.33.28,2.85,2.85,0,0,1-1.46-.38,2.17,2.17,0,0,1-.93-1.08h0V165h-.75v-9.28Zm4.43,4.89a2.85,2.85,0,0,0-.39-.92,2.15,2.15,0,0,0-.68-.66,1.89,1.89,0,0,0-1-.25,2.2,2.2,0,0,0-1.1.25,2.16,2.16,0,0,0-.73.66,2.69,2.69,0,0,0-.4.92,4.37,4.37,0,0,0,0,2.07,2.69,2.69,0,0,0,.4.92,2.16,2.16,0,0,0,.73.66,2.2,2.2,0,0,0,1.1.25,1.89,1.89,0,0,0,1-.25,2.15,2.15,0,0,0,.68-.66,2.85,2.85,0,0,0,.39-.92,4.37,4.37,0,0,0,0-2.07Z"/><path d="M549.6,158.29v1.57h0a2.58,2.58,0,0,1,1-1.26,2.53,2.53,0,0,1,1.57-.4V159a2.48,2.48,0,0,0-1,.15,2.28,2.28,0,0,0-.79.5,2.25,2.25,0,0,0-.51.77,2.57,2.57,0,0,0-.18,1V165h-.82v-6.71Z"/><path d="M556.77,158.38a3,3,0,0,1,1,.77,3.33,3.33,0,0,1,.61,1.12,4.63,4.63,0,0,1,0,2.74,3.33,3.33,0,0,1-.61,1.12,2.88,2.88,0,0,1-1,.76,3.44,3.44,0,0,1-2.72,0,2.88,2.88,0,0,1-1-.76,3.31,3.31,0,0,1-.61-1.12,4.63,4.63,0,0,1,0-2.74,3.31,3.31,0,0,1,.61-1.12,3,3,0,0,1,1-.77,3.37,3.37,0,0,1,2.72,0Zm-2.39.65a2.25,2.25,0,0,0-.73.65,2.94,2.94,0,0,0-.44.92,3.74,3.74,0,0,0,0,2.09,2.94,2.94,0,0,0,.44.92,2.25,2.25,0,0,0,.73.65,2.26,2.26,0,0,0,2.05,0,2.25,2.25,0,0,0,.74-.65,3,3,0,0,0,.44-.92,3.74,3.74,0,0,0,0-2.09,3,3,0,0,0-.44-.92,2.26,2.26,0,0,0-.74-.65,2.26,2.26,0,0,0-2.05,0Z"/><path d="M559.61,158.29l1.72,5.75h0l1.64-5.75h.92l1.64,5.75h0l1.72-5.75h.87L566,165h-.9l-1.65-5.64h0L561.8,165h-.9l-2.16-6.71Z"/><path d="M572.62,159.6a1.32,1.32,0,0,0-.38-.46,1.6,1.6,0,0,0-.55-.27,2.53,2.53,0,0,0-.66-.08,2.69,2.69,0,0,0-.55.06,1.7,1.7,0,0,0-.51.19,1.11,1.11,0,0,0-.38.36,1,1,0,0,0-.14.55.77.77,0,0,0,.14.46,1.21,1.21,0,0,0,.34.32,2.21,2.21,0,0,0,.46.21l.46.14,1.09.25a3.18,3.18,0,0,1,.7.19,2.25,2.25,0,0,1,.61.36,1.74,1.74,0,0,1,.44.55,1.63,1.63,0,0,1,.17.77,1.68,1.68,0,0,1-.25.93,2,2,0,0,1-.63.62,2.69,2.69,0,0,1-.86.34,4.49,4.49,0,0,1-.95.1,3.08,3.08,0,0,1-1.92-.56,2.38,2.38,0,0,1-.84-1.79h.82a1.62,1.62,0,0,0,.6,1.25,2.19,2.19,0,0,0,1.37.42,3.07,3.07,0,0,0,.62-.06,2,2,0,0,0,.59-.22,1.42,1.42,0,0,0,.45-.4,1,1,0,0,0,.18-.59.94.94,0,0,0-.12-.5,1.07,1.07,0,0,0-.33-.34,2.1,2.1,0,0,0-.47-.23l-.54-.16-1.05-.23a6,6,0,0,1-.74-.24,2.37,2.37,0,0,1-.59-.34,1.41,1.41,0,0,1-.4-.49,1.63,1.63,0,0,1-.14-.72,1.61,1.61,0,0,1,.23-.87,1.77,1.77,0,0,1,.59-.58,2.76,2.76,0,0,1,.81-.32,3.93,3.93,0,0,1,.89-.1,3.29,3.29,0,0,1,.94.13,2.17,2.17,0,0,1,.77.4,2,2,0,0,1,.53.68,2.42,2.42,0,0,1,.22.95h-.82A1.54,1.54,0,0,0,572.62,159.6Z"/><path d="M575.41,162.78a2.5,2.5,0,0,0,.4.85,2.26,2.26,0,0,0,.69.62,1.92,1.92,0,0,0,1,.25,2,2,0,0,0,1.4-.47,2.46,2.46,0,0,0,.7-1.25h.82a3.27,3.27,0,0,1-1,1.77,2.85,2.85,0,0,1-2,.62,3.12,3.12,0,0,1-1.37-.28,2.52,2.52,0,0,1-.94-.77,3.33,3.33,0,0,1-.54-1.13,5.17,5.17,0,0,1-.17-1.36,4.9,4.9,0,0,1,.17-1.3,3.48,3.48,0,0,1,.54-1.14,2.71,2.71,0,0,1,.94-.81,2.9,2.9,0,0,1,1.37-.31,2.65,2.65,0,0,1,2.31,1.18,3.52,3.52,0,0,1,.51,1.21,5.28,5.28,0,0,1,.13,1.38h-5.16A3.61,3.61,0,0,0,575.41,162.78Zm4.06-2.5a2.45,2.45,0,0,0-.42-.76,2.09,2.09,0,0,0-.66-.53,1.9,1.9,0,0,0-.88-.2,1.92,1.92,0,0,0-.9.2,2.1,2.1,0,0,0-.66.53,2.64,2.64,0,0,0-.44.77,3.78,3.78,0,0,0-.21.89h4.34A2.94,2.94,0,0,0,579.46,160.28Z"/><path d="M582.17,158.29v1.57h0a2.58,2.58,0,0,1,1-1.26,2.53,2.53,0,0,1,1.57-.4V159a2.48,2.48,0,0,0-1,.15,2.28,2.28,0,0,0-.79.5,2.25,2.25,0,0,0-.51.77,2.57,2.57,0,0,0-.18,1V165h-.82v-6.71Z"/><path d="M584.67,163.62h1.09V165h-1.09Z"/></svg>